<svg width="779" height="466" viewBox="0 0 779 466" fill="none" xmlns="http://www.w3.org/2000/svg">
<g clip-path="url(#clip0_240_360)">
<path d="M595.66 459.879C585.699 451.462 579.649 438.166 581.235 425.223C582.822 412.279 592.649 400.38 605.397 397.632C618.144 394.883 632.675 402.492 636.547 414.944C638.678 390.936 641.134 365.923 653.898 345.478C665.455 326.966 685.473 313.72 707.167 311.35C728.862 308.98 751.704 317.931 765.234 335.054C778.764 352.177 782.077 377.071 772.601 396.73C765.62 411.212 752.759 421.99 739.284 430.758C695.741 458.853 643.516 470.278 592.22 462.931L595.66 459.879Z" fill="#F2F2F2"/>
<path d="M743.78 318.427C725.879 333.007 709.457 349.314 694.751 367.112C671.737 394.87 653.113 425.993 639.529 459.394C638.535 461.831 642.492 462.892 643.475 460.482C665.701 406.197 701.182 358.351 746.674 321.32C748.716 319.657 745.806 316.777 743.78 318.427Z" fill="white"/>
<path d="M47.0082 263.307C71.595 283.334 94.1507 305.732 114.349 330.177C134.551 354.597 152.336 380.92 167.456 408.774C175.907 424.399 183.499 440.474 190.197 456.927C191.563 460.273 186.128 461.73 184.778 458.421C172.913 429.415 158.234 401.641 140.951 375.499C123.752 349.451 104.067 325.133 82.1724 302.886C69.7887 290.31 56.7229 278.423 43.0341 267.282C40.2283 264.997 44.2255 261.042 47.0082 263.307L47.0082 263.307Z" fill="white"/>
<path d="M558.465 464.12H232.06V129.22C232.06 57.9679 290.028 0 361.28 0H429.244C500.497 0 558.465 57.9679 558.465 129.22V464.12Z" fill="#F2F2F2"/>
<path d="M490.501 464.12H232.06V129.22C231.989 101.918 240.634 75.3057 256.738 53.2581C257.331 52.449 257.923 51.6504 258.534 50.8605C266.323 40.6445 275.593 31.6475 286.036 24.1663C286.626 23.7371 287.218 23.3153 287.82 22.8935C296.558 16.846 306.012 11.9023 315.964 8.17488C316.555 7.95088 317.157 7.72644 317.758 7.51116C326.759 4.29905 336.09 2.09877 345.577 0.950949C346.165 0.8706 346.769 0.807726 347.373 0.74485C356.619 -0.243726 365.944 -0.243726 375.189 0.74485C375.792 0.807726 376.396 0.870592 376.991 0.951809C386.476 2.09971 395.804 4.29972 404.802 7.5112C405.404 7.72648 406.006 7.95091 406.599 8.17535C416.428 11.8557 425.77 16.7257 434.416 22.6765C435.017 23.0891 435.618 23.5109 436.21 23.9327C442.064 28.1114 447.563 32.7666 452.65 37.851C456.729 41.9292 460.531 46.2763 464.029 50.8631C464.637 51.6504 465.23 52.4491 465.822 53.2569C481.926 75.3047 490.572 101.917 490.501 129.22V464.12Z" fill="#CCCCCC"/>
<path d="M469.486 314.332C477.388 314.332 483.794 307.926 483.794 300.024C483.794 292.122 477.388 285.716 469.486 285.716C461.584 285.716 455.178 292.122 455.178 300.024C455.178 307.926 461.584 314.332 469.486 314.332Z" fill="#6C63FF"/>
<path d="M531.726 454.089H520.762L515.546 411.802L531.728 411.803L531.726 454.089Z" fill="#FFB8B8"/>
<path d="M512.931 450.957H534.075V464.269H499.618C499.618 462.521 499.963 460.79 500.632 459.175C501.301 457.56 502.281 456.092 503.517 454.856C504.754 453.62 506.221 452.639 507.836 451.97C509.452 451.301 511.183 450.957 512.931 450.957Z" fill="#2F2E41"/>
<path d="M586.275 454.089H575.311L570.095 411.802L586.277 411.803L586.275 454.089Z" fill="#FFB8B8"/>
<path d="M567.481 450.957H588.624V464.269H554.168C554.168 462.521 554.512 460.79 555.181 459.175C555.85 457.56 556.831 456.092 558.067 454.856C559.303 453.62 560.771 452.639 562.386 451.97C564.001 451.301 565.732 450.957 567.481 450.957Z" fill="#2F2E41"/>
<path d="M476.727 302.858C475.939 301.696 475.414 300.375 475.191 298.989C474.968 297.602 475.052 296.183 475.436 294.833C475.821 293.482 476.497 292.232 477.417 291.171C478.337 290.109 479.478 289.263 480.761 288.69L518.03 185.97L536.369 195.978L493.815 294.141C494.634 296.36 494.611 298.801 493.75 301.003C492.889 303.206 491.249 305.015 489.143 306.09C487.037 307.164 484.61 307.429 482.321 306.833C480.033 306.238 478.043 304.823 476.727 302.858Z" fill="#FFB8B8"/>
<path d="M580.675 322.16C579.457 321.461 578.406 320.504 577.598 319.356C576.789 318.207 576.243 316.896 575.996 315.513C575.749 314.13 575.809 312.711 576.17 311.353C576.532 309.996 577.186 308.735 578.088 307.658L566.542 198.997L587.412 199.951L592.211 306.833C593.919 308.468 594.969 310.672 595.16 313.029C595.352 315.386 594.673 317.731 593.251 319.62C591.829 321.51 589.763 322.812 587.446 323.28C585.128 323.748 582.719 323.349 580.675 322.16Z" fill="#FFB8B8"/>
<path d="M547.381 166.943C559.511 166.943 569.345 157.11 569.345 144.98C569.345 132.849 559.511 123.016 547.381 123.016C535.251 123.016 525.417 132.849 525.417 144.98C525.417 157.11 535.251 166.943 547.381 166.943Z" fill="#FFB8B8"/>
<path d="M580.534 297.447H514.317L514.397 296.932C514.516 296.162 526.198 219.633 517.582 194.597C516.718 192.136 516.794 189.443 517.796 187.035C518.798 184.628 520.655 182.676 523.01 181.555H523.01C535.325 175.756 558.966 168.614 578.919 185.945C581.855 188.538 584.148 191.777 585.616 195.409C587.084 199.04 587.688 202.963 587.378 206.867L580.534 297.447Z" fill="#6C63FF"/>
<path d="M527.035 230.943L497.224 224.895L511.198 191.78C512.034 188.573 514.108 185.829 516.965 184.149C519.822 182.468 523.229 181.99 526.439 182.819C529.648 183.647 532.398 185.715 534.084 188.568C535.771 191.421 536.258 194.827 535.437 198.038L527.035 230.943Z" fill="#6C63FF"/>
<path d="M565.216 242.173L563.424 201.089C562.065 193.366 566.486 186.065 573.286 184.872C580.087 183.683 586.728 189.039 588.093 196.819L594.829 235.208L565.216 242.173Z" fill="#6C63FF"/>
<path d="M578.331 292.529C588.986 333.107 590.148 384.699 587.274 440.976L572.966 439.187L547.032 331.876L532.724 440.976L516.627 440.081C511.818 381.034 507.136 330.342 514.839 297L578.331 292.529Z" fill="#2F2E41"/>
<path d="M561.853 161.954C557.755 166.319 550.146 163.975 549.612 158.013C549.57 157.55 549.573 157.084 549.621 156.621C549.897 153.98 551.422 151.582 551.057 148.794C550.974 148.099 550.716 147.438 550.306 146.872C547.04 142.5 539.376 148.827 536.294 144.869C534.405 142.442 536.626 138.621 535.176 135.908C533.262 132.328 527.594 134.094 524.039 132.134C520.084 129.952 520.32 123.884 522.924 120.193C526.099 115.692 531.666 113.29 537.163 112.943C542.661 112.597 548.121 114.083 553.253 116.084C559.085 118.356 564.868 121.497 568.456 126.625C572.82 132.86 573.24 141.244 571.058 148.536C569.73 152.971 565.199 158.39 561.853 161.954Z" fill="#2F2E41"/>
<path d="M751.161 464.696H90.9347C90.6529 464.695 90.3829 464.582 90.1838 464.383C89.9848 464.183 89.873 463.913 89.873 463.631C89.873 463.349 89.9848 463.079 90.1838 462.879C90.3829 462.68 90.6529 462.567 90.9347 462.566H751.161C751.443 462.567 751.713 462.68 751.912 462.879C752.111 463.079 752.222 463.349 752.222 463.631C752.222 463.913 752.111 464.183 751.912 464.383C751.713 464.582 751.443 464.695 751.161 464.696Z" fill="#3F3D56"/>
<path d="M419.408 367.093H303.154C301.623 367.102 300.151 366.502 299.061 365.427C297.972 364.351 297.353 362.887 297.341 361.356V101.87C297.353 100.339 297.972 98.8749 299.061 97.7994C300.151 96.7239 301.623 96.1245 303.154 96.1328H419.408C420.939 96.1245 422.411 96.7239 423.5 97.7994C424.59 98.8749 425.208 100.339 425.22 101.87V361.356C425.208 362.887 424.59 364.351 423.5 365.427C422.411 366.502 420.939 367.102 419.408 367.093Z" fill="white"/>
<path d="M425.22 180.094H297.341V181.883H425.22V180.094Z" fill="#CCCCCC"/>
<path d="M425.667 282.139H297.788V283.927H425.667V282.139Z" fill="#CCCCCC"/>
<path d="M339.372 96.1328H337.583V367.988H339.372V96.1328Z" fill="#CCCCCC"/>
<path d="M384.084 96.1328H382.296V367.988H384.084V96.1328Z" fill="#CCCCCC"/>
</g>
<defs>
<clipPath id="clip0_240_360">
<rect width="778.005" height="465.139" fill="white"/>
</clipPath>
</defs>
</svg>
