<svg width="1440" height="325" viewBox="0 0 1440 325" fill="none" xmlns="http://www.w3.org/2000/svg">
<path fill-rule="evenodd" clip-rule="evenodd" d="M-7 169L76.0556 162C159.111 154 325.222 140 491.333 154C657.444 169 823.556 212 989.667 198C1155.78 183 1321.89 111 1404.94 75L1488 39V428H1404.94C1321.89 428 1155.78 428 989.667 428C823.556 428 657.444 428 491.333 428C325.222 428 159.111 428 76.0556 428H-7V169Z" fill="#337CE7"/>
<path fill-rule="evenodd" clip-rule="evenodd" d="M-7 130L76.0556 123C159.111 115 325.222 101 491.333 115C657.444 130 823.556 173 989.667 159C1155.78 144 1321.89 72 1404.94 36L1488 0V389H1404.94C1321.89 389 1155.78 389 989.667 389C823.556 389 657.444 389 491.333 389C325.222 389 159.111 389 76.0556 389H-7V130Z" fill="#337CE7" fill-opacity="0.34"/>
</svg>
